<svg width="40" height="40" viewBox="0 0 40 40" xmlns="http://www.w3.org/2000/svg">
	<path fill="#000" d="M1,3v16h18V3H1z M3,5h14v7.58l-2.439-2.44l-2.25,2.25L7.84,7.92L3,12.77V5z M17,17H3v-2.11l4.84-4.85 l5.77,5.78l1.061-1.06l-1.3-1.31l1.19-1.19L17,14.7V17z"/>
	<path fill="#000" d="M21,3v16h18V3H21z M23,5h14v7.58l-2.439-2.44l-2.25,2.25L27.84,7.92L23,12.77V5z M37,17H23v-2.11l4.84-4.85 l5.77,5.78l1.063-1.06l-1.3-1.31l1.188-1.19L37,14.7V17z"/>
	<path fill="#000" d="M1,21v16h18V21H1z M3,23h14v7.58l-2.439-2.439l-2.25,2.25L7.84,25.92L3,30.77V23z M17,35H3v-2.109 l4.84-4.851l5.77,5.78l1.061-1.063l-1.3-1.31l1.19-1.19L17,32.7V35z"/>
	<path fill="#000" d="M21,21v16h18V21H21z M23,23h14v7.58l-2.439-2.439l-2.25,2.25L27.84,25.92L23,30.77V23z M37,35H23v-2.109 l4.84-4.851l5.77,5.78l1.063-1.063l-1.3-1.31l1.188-1.19L37,32.7V35z"/>
</svg>