<svg width="50" height="50" viewBox="0 0 50 50" xmlns="http://www.w3.org/2000/svg">
    <path fill="#E0E0E0" d="M38,22v18c0,0.55-0.45,1-1,1H14c-0.55,0-1-0.45-1-1V11c0-0.55,0.45-1,1-1h12V8H13c-1.1,0-2,0.9-2,2v31 c0,1.1,0.9,2,2,2h25c1.1,0,2-0.9,2-2V22H38z"/>
    <path fill="#E0E0E0" d="M40,20H29c-0.55,0-1-0.45-1-1V8L40,20z"/>
    <rect x="17" y="18" fill="#E0E0E0" width="8" height="2"/>
    <rect x="17" y="23" fill="#E0E0E0" width="17" height="2"/>
    <rect x="17" y="28" fill="#E0E0E0" width="17" height="2"/>
    <rect x="17" y="33" fill="#E0E0E0" width="12" height="2"/>
</svg>
