<svg width="20" height="20" viewBox="0 0 20 20" xmlns="http://www.w3.org/2000/svg">
    <path fill="none" stroke="#444" d="M13.73764,6.42A7.60738,7.60738,0,0,0,13.61,7.85,3.27,3.27,0,0,0,14,9.15a3.48,3.48,0,0,0,2,1.53,3.72,3.72,0,0,1,1,.54A3.72,3.72,0,0,1,14.31,18a3.77,3.77,0,0,1-2.53-1.81c0-.06-.11-.2-.12-.22a3.59,3.59,0,0,1-.32-2.43A3.37,3.37,0,0,0,11,10.87,3.28631,3.28631,0,0,0,9.94608,9.82942"/>
    <path fill="none" stroke="#444" d="M3.78831,10.74476a7.44181,7.44181,0,0,0,1.30029-.63484,3.51,3.51,0,0,0,.92-1,3.46,3.46,0,0,0,.33-2.52,4.57993,4.57993,0,0,1,0-1.17,3.75,3.75,0,0,1,1.27-2.59,4,4,0,0,1,2.34-.83,3.82,3.82,0,0,1,3.17,1.6,4.16991,4.16991,0,0,1,.48.94,3.62,3.62,0,0,1-.33,3.09,2.38892,2.38892,0,0,1-.13.21,3.7,3.7,0,0,1-2,1.49,3.33,3.33,0,0,0-2.19,1.55,3.0348,3.0348,0,0,0-.40716,1.266"/>
    <path fill="none" stroke="#444" d="M12.5,17.06a5.26,5.26,0,0,0-1.14-.73A3.58,3.58,0,0,0,10,16a3.47,3.47,0,0,0-2.35,1,4.99988,4.99988,0,0,1-1,.63,3.86,3.86,0,0,1-2.91.15,3.81,3.81,0,0,1-1.9-1.57,3.69,3.69,0,0,1-.2-3.5,4.00008,4.00008,0,0,1,.57-.89,3.75,3.75,0,0,1,2.9-1.29h.2a3.75,3.75,0,0,1,2.27.94,3.41,3.41,0,0,0,2.45,1,3.07,3.07,0,0,0,1.39-.34"/>
    <path fill="none" stroke="#444" d="M15.68,13a1.52,1.52,0,0,0-2.06.55,1.49,1.49,0,0,0,.53117,2.03913L14.17,15.6a1.51,1.51,0,0,0,2.05309-.5874L16.23,15A1.49,1.49,0,0,0,15.68,13Z"/>
    <path fill="none" stroke="#444" d="M10.7586,4.54992a1.52,1.52,0,0,0-2.07.54,1.5,1.5,0,0,0,.55534,2.04734l.00466.00266a1.52,1.52,0,0,0,2.06-.55,1.48,1.48,0,0,0-.5256-2.026Z"/>
    <path fill="none" stroke="#444" d="M5.84,13a1.52,1.52,0,0,0-2.06.55,1.49,1.49,0,0,0,.53116,2.03913L4.33,15.6a1.52,1.52,0,0,0,2.06618-.59306L6.4,15A1.51,1.51,0,0,0,5.84,13Z"/>
</svg>